PathFileType	4	(X/Y/Z)	C:/Users/beibeiliu/ov580/test_trc/User3\sequence.17_training_dense_left.trc
DataRate	CameraRate	NumFrames	NumMarkers	Units	OrigDataRate	OrigDataStartFrame	OrigNumFrames
120	120	19	19	mm	120	27	105
Frame#	Time	ThumbCMC			ThumbMCP			ThumbIP			ThumbTip			IndexMCP			IndexPIP			IndexTip			MiddleMCP			MiddlePIP			MiddleTip			RingMCP			RingPIP			RingTip			PinkyMCP			PinkyPIP			PinkyTip			BackHand1			BackHand2			BackHand3	
		X0	Y0	Z0	X1	Y1	Z1	X2	Y2	Z2	X3	Y3	Z3	X4	Y4	Z4	X5	Y5	Z5	X6	Y6	Z6	X7	Y7	Z7	X8	Y8	Z8	X9	Y9	Z9	X10	Y10	Z10	X11	Y11	Z11	X12	Y12	Z12	X13	Y13	Z13	X14	Y14	Z14	X15	Y15	Z15	X16	Y16	Z16	X17	Y17	Z17	X18	Y18	Z18	
26	0.216667	-118.418	38.9794	18.7327	-95.283	59.2816	-0.662261	-65.5251	56.3728	-9.02692	-46.3909	41.7931	0.344974	-76.4189	19.711	-41.5266	-48.3288	37.1762	-47.5857	-49.8161	57.3689	-22.5895	-53.4529	5.00701	-34.7151	-35.9961	31.1173	-35.3706	-50.7738	43.6868	-1.41316	-46.7888	-0.0720993	-21.0248	-26.8206	24.3455	-15.2415	-44.4969	38.6864	10.7599	-40.9289	-9.14878	2.27906	-27.5422	16.4995	1.49188	-38.3624	30.7823	24.1361	-85.5632	-22.2041	15.8829	-105.862	-24.5944	43.5178	-116.832	-0.492516	12.7918	
27	0.225	-121.711	19.0082	17.8231	-112.15	45.1971	-7.09589	-80.1855	51.2235	-22.8784	-53.9735	45.0071	-12.8924	-77.9486	4.94028	-42.072	-63.0616	34.2877	-56.9982	-66.5882	52.1957	-30.8451	-57.1454	2.2894	-41.3463	-42.4457	30.7883	-42.3735	-65.8078	42.1631	-8.73126	-43.5543	-2.2312	-22.1375	-32.8306	29.0283	-23.6698	-48.6509	41.7101	-0.53322	-34.6622	-4.63719	-1.35251	-28.6918	20.0198	-9.41788	-44.0566	36.8551	11.8617	-78.2842	-24.645	18.0706	-90.0932	-28.4752	47.1527	-107.672	-16.9634	13.6887	
28	0.233333	-129.807	5.23385	14.1373	-122.299	25.9293	-8.64159	-96.9582	36.3247	-27.6437	-71.4171	35.6435	-22.6362	-87.5199	-11.0005	-47.9415	-77.1178	15.0809	-62.9586	-86.2576	37.5879	-35.0057	-69.543	-12.8467	-43.1968	-59.9211	19.6831	-53.2875	-73.2578	30.6303	-21.3956	-52.3326	-9.76889	-31.0467	-47.2083	20.1105	-38.1745	-62.6004	34.0564	-14.656	-43.9237	-10.1926	-9.77864	-37.3311	16.603	-20.2747	-52.8378	34.3254	-1.3358	-73.3702	-34.8009	16.4077	-88.8878	-34.9138	48.3366	-110.447	-31.3169	18.4587	
29	0.241667	-136.744	-3.89488	19.8384	-129.506	11.6946	-11.0055	-111.333	23.1561	-35.5447	-80.3504	22.0358	-32.9834	-101.525	-29.3316	-45.091	-95.4379	-3.56911	-66.9859	-105.358	19.4504	-41.4641	-78.6477	-30.8821	-45.794	-74.1181	-0.740011	-59.0462	-89.2188	14.506	-23.703	-66.0952	-26.5389	-33.9045	-60.0148	0.898976	-45.2468	-71.0584	18.955	-20.4732	-56.2822	-23.4618	-15.0798	-49.9882	0.27211	-31.573	-63.3001	20.9803	-14.5061	-86.586	-43.1404	19.8533	-92.747	-39.6535	47.1673	-119.126	-40.3622	22.7176	
30	0.25	-141.425	-13.0715	20.2221	-141.079	0.734202	-14.0193	-120.539	4.77358	-33.2953	-91.7863	0.8987	-35.8985	-121.677	-46.3734	-46.6914	-111.685	-25.4672	-65.942	-115.975	2.30377	-40.7726	-97.2592	-49.8095	-41.2433	-90.0575	-22.4896	-61.334	-97.8557	-2.67763	-30.0761	-81.4267	-46.5748	-35.4911	-73.3229	-19.0009	-48.3043	-88.3424	0.489391	-26.8666	-68.3972	-41.5825	-18.5066	-62.9262	-23.263	-36.5275	-73.234	6.05159	-22.2224	-92.5127	-56.3457	21.6461	-98.5836	-46.2663	51.9203	-127.312	-48.6139	28.2509	
31	0.258333	-151.811	-15.8448	25.7175	-152.466	-6.02957	-11.9665	-134.856	-9.77277	-34.2292	-107.377	-16.2248	-44.2538	-139.571	-61.3146	-38.5407	-135.917	-42.6445	-62.9374	-134.419	-13.5186	-43.6504	-120.519	-66.634	-40.9785	-113.432	-42.1637	-60.1351	-116.543	-16.5624	-29.8321	-100.009	-64.0991	-29.571	-94.8813	-44.9645	-50.8152	-100.225	-16.8928	-30.5008	-84.3575	-59.8616	-14.3324	-79.7129	-44.1876	-40.0053	-83.4646	-17.844	-32.2753	-108.778	-65.07	27.1536	-110.649	-50.2249	55.4492	-143.753	-51.1519	33.0867	
32	0.266667	-157.357	-13.8058	28.3426	-159.334	-8.30814	-6.42615	-147.71	-15.9916	-35.6109	-123.744	-31.473	-40.9803	-166.581	-64.9675	-24.7332	-156.882	-53.2105	-55.6486	-146.023	-24.2941	-42.5292	-145.157	-76.3876	-29.1606	-136.376	-59.1806	-56.6687	-130.026	-29.5168	-30.149	-128.733	-77.8652	-23.7594	-117.607	-63.9677	-48.5083	-112.864	-33.9457	-33.0018	-106.664	-77.0908	-12.4352	-106.67	-65.2867	-37.9169	-100.602	-35.1147	-32.4681	-126.146	-72.0278	32.2268	-121.761	-53.8256	59.2067	-150.537	-50.1486	41.8285	
33	0.275	-157.688	-3.87089	31.9466	-159.765	-2.77253	-5.30187	-154.746	-18.2177	-35.4877	-139.006	-37.0118	-40.042	-184.621	-56.8809	-16.7199	-176.679	-50.9724	-48.5746	-156.527	-25.2767	-39.1896	-174.888	-71.6019	-23.7543	-161.883	-61.3255	-50.3036	-141.492	-35.2826	-30.415	-157.868	-78.9611	-19.3096	-144.609	-70.5553	-43.0052	-127.033	-43.4579	-28.9568	-138.208	-86.9449	-10.1959	-133.883	-75.565	-33.4606	-114.811	-53.2155	-34.8691	-150.354	-69.4302	37.8871	-137.044	-58.0165	60.5865	-164.505	-43.1896	47.6829	
34	0.283333	-147.024	2.73751	34.5784	-148.688	8.34321	-2.38798	-152.87	-5.19263	-29.6595	-150.149	-32.4955	-37.6594	-199.307	-27.6565	-10.9755	-187.416	-26.7309	-44.3817	-160.879	-16.488	-38.4141	-198.219	-47.8357	-19.1148	-180.07	-44.5555	-46.2112	-149.106	-30.6988	-24.8152	-184.084	-64.6334	-13.1379	-169.327	-57.2127	-41.321	-140.832	-43.8255	-26.9931	-166.98	-77.3916	-2.06491	-161.973	-70.0964	-31.7669	-136.834	-54.9371	-33.1704	-169.996	-56.9005	41.8618	-148.902	-52.63	66.34	-169.799	-27.9925	51.1132	
35	0.291667	-130.043	8.98361	37.3526	-133.758	14.5979	-0.298239	-141.411	5.84502	-25.8699	-150.362	-18.1375	-36.228	-193.521	10.5578	-10.6288	-179.897	9.6545	-43.4018	-152.737	1.68073	-35.8077	-202.857	-13.2481	-17.6633	-185.209	-12.8051	-45.0452	-150.325	-17.5234	-27.9065	-197.637	-32.4227	-12.8055	-180.599	-33.5283	-40.7722	-151.396	-33.6556	-29.224	-191.754	-49.7623	-6.65163	-179.134	-47.4086	-32.375	-152.157	-49.6847	-33.0004	-184.343	-35.4714	41.8135	-164.052	-41.609	66.4743	-164.692	-8.25802	52.9127	
36	0.3	-115.114	8.37836	38.2197	-113.519	14.8858	2.16991	-121.158	11.882	-25.1485	-139.336	-4.19553	-43.3945	-169.016	35.0431	-13.3044	-159.66	32.077	-43.5294	-135.887	9.31585	-35.9573	-185.113	22.6531	-17.6799	-171.764	18.2427	-47.6189	-145.795	-8.13813	-32.8882	-190.258	0.768554	-14.5256	-178.725	-4.91654	-42.367	-146.859	-19.5252	-29.2292	-190.655	-16.7906	-11.7144	-178.514	-19.8002	-34.456	-152.266	-35.8135	-32.9513	-182.045	-12.6354	39.7448	-169.342	-22.7458	62.593	-154.899	6.84139	51.051	
37	0.308333	-103.407	3.5626	33.4281	-94.8359	8.50179	-1.43375	-100.224	6.1724	-28.2118	-121.506	-2.29858	-47.4463	-137.453	47.0487	-24.5997	-125.551	36.3642	-51.2679	-111.5	9.69306	-38.1306	-158.517	38.1143	-25.1376	-147.117	28.0027	-55.0978	-132.513	-2.9129	-38.1773	-171.694	21.3872	-23.7274	-156.71	9.80661	-51.2778	-139.692	-16.3963	-34.031	-180.494	2.74512	-15.9967	-169.113	-5.52464	-42.2628	-147.387	-22.872	-38.7358	-166.315	9.81957	33.273	-166.759	-7.15974	56.1488	-136.744	20.5035	43.9665	
38	0.316667	-92.3456	-0.916918	28.5624	-75.5934	-3.99746	-5.366	-82.8744	-5.56228	-35.9891	-106.024	-12.1846	-47.6493	-109.305	42.2563	-32.0807	-97.7932	27.3328	-61.2927	-96.7634	-1.81856	-46.045	-128.515	40.723	-38.1177	-123.43	21.7753	-66.0339	-117.471	-9.67948	-40.7859	-146.141	29.0566	-36.8112	-139.888	10.9092	-61.2744	-128.687	-15.6364	-43.645	-160.782	12.631	-29.2828	-154.532	-2.48555	-51.1603	-138.643	-28.7882	-37.5856	-152.57	19.2915	20.6301	-150.038	8.94735	46.3251	-118.536	25.1321	35.1687	
39	0.325	-82.2516	-3.49373	23.999	-68.452	-13.5022	-4.97265	-74.339	-19.1489	-39.4255	-102.069	-22.6955	-51.933	-91.9976	30.711	-48.7129	-85.4336	12.7355	-70.9234	-84.6095	-16.0941	-48.9374	-114.881	30.899	-54.1436	-109.244	5.49134	-73.655	-108.315	-18.7215	-47.3591	-129.012	23.9655	-46.5948	-127.455	0.217888	-67.4329	-121.626	-24.5692	-43.2392	-147.615	11.89	-39.9736	-141.462	-8.93596	-55.9537	-132.287	-30.3638	-35.2291	-134.495	27.8473	10.7373	-139.611	17.8325	37.2038	-102.405	25.3359	26.5092	
40	0.333333	-66.6332	-6.22927	21.9125	-58.3562	-21.4416	-6.59471	-64.2171	-32.6056	-36.0543	-91.0936	-36.9692	-49.2224	-79.9594	16.0012	-55.6526	-74.5526	-9.40376	-72.5074	-78.464	-30.9759	-48.7847	-100.307	16.1263	-60.5192	-97.9946	-11.4405	-76.3454	-94.4389	-31.3	-41.6835	-119.141	12.1448	-53.832	-117.003	-14.5257	-69.6304	-110.203	-33.8441	-39.5662	-134.263	5.61238	-41.3155	-133.403	-19.6046	-55.4452	-123.001	-37.6217	-32.634	-124.718	28.5378	-1.3677	-126.167	25.3626	30.5708	-92.1517	27.329	17.918	
41	0.341667	-56.7066	-4.19262	25.5873	-49.2051	-26.6513	4.00043	-54.7333	-44.8542	-28.0693	-81.5301	-46.3246	-38.0428	-64.3681	1.86278	-52.5156	-62.1399	-25.616	-68.2707	-67.8377	-42.6454	-39.9691	-87.2494	0.614387	-62.1997	-84.979	-30.7084	-70.273	-89.2133	-41.4031	-32.3141	-107.593	-0.890707	-54.1118	-103.213	-30.8983	-62.9716	-98.5224	-43.7753	-31.8401	-125.532	-6.21033	-44.0262	-120.292	-33.8179	-47.5353	-114.984	-43.8208	-16.8341	-110.07	26.5611	-5.09497	-111.913	29.2869	25.035	-78.0959	26.9552	15.2612	
42	0.35	-49.5286	0.899726	28.3634	-33.9033	-25.3203	12.9274	-43.9328	-45.7162	-12.3515	-64.6282	-53.6442	-21.0908	-48.1739	-7.4918	-46.714	-45.2983	-41.2357	-51.998	-49.2971	-46.2429	-18.3108	-71.0672	-15.1934	-56.8297	-68.9615	-46.5644	-55.7791	-68.7102	-45.9044	-13.9501	-92.2434	-16.6764	-48.1029	-90.45	-48.4851	-46.8083	-83.4418	-51.1194	-14.7376	-110.906	-21.8147	-37.5842	-102.3	-48.3666	-32.6021	-95.9589	-48.6936	-2.87014	-100.151	23.2197	-5.54276	-106.218	30.7698	22.2225	-71.1796	29.0845	13.2337	
43	0.358333	-41.0271	13.2454	34.3223	-25.2502	-13.7117	21.7766	-23.0143	-39.0729	5.88167	-45.176	-56.5023	-7.88781	-36.9531	-12.5923	-40.026	-21.0672	-40.6722	-39.0597	-27.3154	-45.0417	-5.88721	-56.0243	-20.9718	-45.3594	-41.5128	-52.9318	-38.2697	-48.9841	-46.5349	-1.77533	-71.5485	-30.0009	-40.308	-64.6907	-56.607	-32.3956	-64.6891	-52.2168	3.56292	-88.3089	-34.9829	-28.4678	-79.4054	-57.2444	-15.8249	-74.3993	-51.2816	11.87	-91.0237	17.027	-9.20892	-105.612	28.5339	18.2564	-65.8209	33.5209	12.4493	
44	0.366667	-43.255	24.8002	35.5307	-13.9647	0.409012	27.6902	-5.26442	-28.5515	10.0362	-24.1608	-46.2199	2.3792	-24.1248	-3.6661	-33.6963	-4.99164	-29.9428	-31.5384	-10.3097	-31.8283	4.01994	-39.8161	-17.2547	-38.8613	-22.7654	-45.2856	-32.0711	-27.9635	-37.8883	8.34801	-55.4048	-33.8989	-32.9769	-41.5325	-55.187	-21.0877	-43.5653	-46.1127	14.1415	-73.533	-37.6814	-19.2962	-55.581	-57.4386	-2.73256	-51.5705	-42.579	23.3522	-88.2135	11.496	-6.53183	-99.9389	24.5762	17.1983	-65.7519	36.7891	7.11581	
